<?xml version="1.0" standalone="no"?>
<!DOCTYPE svg PUBLIC "-//W3C//DTD SVG 20010904//EN"
 "http://www.w3.org/TR/2001/REC-SVG-20010904/DTD/svg10.dtd">
<svg version="1.0" xmlns="http://www.w3.org/2000/svg"
 width="120.000000pt" height="120.000000pt" viewBox="0 0 120.000000 120.000000"
 preserveAspectRatio="xMidYMid meet">
<metadata>
Created by potrace 1.14, written by Peter Selinger 2001-2017
</metadata>
<g transform="translate(0.000000,120.000000) scale(0.100000,-0.100000)"
fill="#000000" stroke="none">
<path d="M440 1177 c-130 -39 -233 -108 -314 -210 -37 -48 -92 -153 -101 -196
-3 -11 -8 -31 -11 -43 -14 -49 -13 -196 2 -259 51 -223 231 -403 454 -454 143
-32 313 -4 437 72 198 122 298 310 289 543 -10 247 -177 465 -416 541 -98 32
-244 34 -340 6z"/>
</g>
</svg>
